<svg xmlns="http://www.w3.org/2000/svg" viewBox="0 0 1050.32 51.08"><defs><style>.cls-1,.cls-2,.cls-5{fill:#816e65;}.cls-2,.cls-5{stroke:#816e65;stroke-miterlimit:10;}.cls-3{fill:#6a8b69;}.cls-4{fill:#746250;}.cls-5{font-size:23.36px;stroke-width:1.5px;font-family:jf-openhuninn-1.0, jf-openhuninn-1.0;letter-spacing:0.1em;}.cls-6{font-size:26px;fill:#c07a25;font-family:ConcertOne-Regular, Concert One;letter-spacing:0.15em;}</style></defs><title>アセット 1</title><g id="レイヤー_2" data-name="レイヤー 2"><g id="レイヤー_1-2" data-name="レイヤー 1"><path class="cls-1" d="M0,26.58a10.57,10.57,0,0,1,1.39-5.25,21.87,21.87,0,0,1,6.28-7.75A3,3,0,0,0,8,13.22l4-2.65a1.8,1.8,0,0,0,.33-.1A40.91,40.91,0,0,1,26,5.78c3.62-.59,2.85-1.2,4.89,2.31a24,24,0,0,1,3,15.39A25.09,25.09,0,0,1,26.05,39a1.46,1.46,0,0,1-1.66.4c-2.82-.93-5.67-1.81-8.43-2.92C10.78,34.42,5.62,32.3,1.34,28.56ZM16.74,21a2.84,2.84,0,1,0-3.19-4.71,2.76,2.76,0,0,0-.76,3.94A2.8,2.8,0,0,0,16.74,21Z"/><path class="cls-1" d="M105.18,30a3.68,3.68,0,0,0,.6-1.92l-.85-1.27a3.42,3.42,0,0,0-2.48,0c-4.87,1.3-9.74,2.58-14.6,3.9a1.28,1.28,0,0,1-1.52-.45A82.57,82.57,0,0,0,70,16.35c-.55-.36-.65-.65-.31-1.21.52-.88,1-1.78,1.46-2.69A5.29,5.29,0,0,0,67.41,4.5C60,3,52.63,1.57,45.24.13A5,5,0,0,0,39.33,3C38.6,4.65,37.64,5.35,35.91,5h-.09c-.35,0-.84-.18-1,.12s.19.72.37,1A28.75,28.75,0,0,1,38.71,21,30,30,0,0,1,31.2,40.38c-.62.72-.6.76.31,1,2.12.5,4.24,1,6.37,1.46a2.28,2.28,0,0,1,1.43.95c1.3,1.75,2.58,3.51,4,5.13S47,51,49.16,51.08a2.11,2.11,0,0,0,1.94-2.72,26,26,0,0,0-.85-3c-.26-.78,0-.91.71-.87a96.85,96.85,0,0,0,20-1A58.67,58.67,0,0,0,84.47,40a1.23,1.23,0,0,1,1.38.23c4.08,3.11,8.17,6.19,12.24,9.3a3.31,3.31,0,0,0,2.33.83l1-.67a3.13,3.13,0,0,0,.32-2.21c-.36-2.18-.66-4.36-1-6.54a7.19,7.19,0,0,1,1-5.06C102.86,33.9,104,32,105.18,30ZM61.74,24.93c-.49,1-.93,1.93-1.4,2.9l-1.5,3.09-1.22,2.55c-.42.87-.84,1.74-1.27,2.61l-.54,1.13a.63.63,0,0,1-1.2-.34L55,34c.12-.79.22-1.57.34-2.36s.21-1.43.32-2.15c.07-.47.13-.94.19-1.4,0-.13-.05-.19-.16-.22a1,1,0,0,0-.17,0H51.27a.62.62,0,0,1-.67-.54.83.83,0,0,1,.09-.44c.33-.68.66-1.35,1-2s.57-1.15.84-1.73c.43-.88.85-1.76,1.27-2.64S54.61,18.82,55,18l1.11-2.33.53-1.08a.58.58,0,0,1,.75-.28.58.58,0,0,1,.41.63c-.08.67-.18,1.34-.29,2-.08.48-.13,1-.2,1.45L57,20.57c-.11.8-.22,1.6-.34,2.4,0,.24-.08.47-.1.7s0,.29.26.29H59c.71,0,1.42,0,2.13,0A.65.65,0,0,1,61.74,24.93Z"/><path class="cls-1" d="M123,33.08a3.93,3.93,0,0,1-.63.54,1.21,1.21,0,0,1-.69.23,1.11,1.11,0,0,1-.5-.12,1.89,1.89,0,0,1-.54-.42,2.58,2.58,0,0,1-.46-.59,1.33,1.33,0,0,1-.13-.52,1.12,1.12,0,0,1,.23-.68,4.36,4.36,0,0,1,.54-.62l2.51-2.51-2.54-2.57a4.13,4.13,0,0,1-.51-.61,1.23,1.23,0,0,1-.23-.71,1.15,1.15,0,0,1,.12-.5,2.21,2.21,0,0,1,.42-.54,2.31,2.31,0,0,1,.57-.44,1,1,0,0,1,.52-.14,1.17,1.17,0,0,1,.69.23,5,5,0,0,1,.6.53l2.57,2.56,2.56-2.56a5.93,5.93,0,0,1,.61-.53,1.12,1.12,0,0,1,.69-.23,1,1,0,0,1,.52.14,2.31,2.31,0,0,1,.57.44,2.4,2.4,0,0,1,.41.54,1.15,1.15,0,0,1,.12.5,1.22,1.22,0,0,1-.22.71,4.85,4.85,0,0,1-.51.61l-2.57,2.57,2.54,2.51a5,5,0,0,1,.53.62,1.06,1.06,0,0,1,.23.68,1.3,1.3,0,0,1-.12.52,2.58,2.58,0,0,1-.46.59,2.21,2.21,0,0,1-.54.42,1.15,1.15,0,0,1-.5.12,1.17,1.17,0,0,1-.69-.23,3.93,3.93,0,0,1-.63-.54l-2.54-2.51Z"/><path class="cls-2" d="M257.85,23c0-1,.63-1.55,1.9-1.55h26.88c1.29,0,1.94.51,1.94,1.55s-.65,1.55-1.94,1.55H259.75C258.48,24.52,257.85,24,257.85,23Z"/><path class="cls-2" d="M257.85,30.71c0-1,.63-1.55,1.9-1.55h26.88c1.29,0,1.94.52,1.94,1.55s-.65,1.55-1.94,1.55H259.75C258.48,32.26,257.85,31.75,257.85,30.71Z"/><path class="cls-2" d="M259.78,14.58q0-2.79,2.88-2.79a2.66,2.66,0,0,1,1.95.8,2.78,2.78,0,0,1,.84,2,2.57,2.57,0,0,1-.84,1.94,2.58,2.58,0,0,1-2,.89C260.72,17.46,259.78,16.5,259.78,14.58Z"/><path class="cls-2" d="M282.72,39q0-2.79,2.88-2.79a2.81,2.81,0,0,1,2,.8,2.76,2.76,0,0,1,.8,2,2.51,2.51,0,0,1-2.84,2.84C283.66,41.89,282.72,40.93,282.72,39Z"/><path class="cls-3" d="M330.48,35.68a8.22,8.22,0,0,1-11.83-8,2.71,2.71,0,0,0-.42-1.75,8.17,8.17,0,0,1,4.95-12.44,1.58,1.58,0,0,0,1.37-1.42c1.22-6.32,8.85-8.29,13.27-4.65a7.86,7.86,0,0,1,2.59,3.9,1.29,1.29,0,0,0,1.15,1,8.2,8.2,0,0,1,5.79,12,1.82,1.82,0,0,0-.13,1.32c1.28,5.86-2.62,10.75-8.45,10.59a11.37,11.37,0,0,1-4.32-1.5c0-.77-.1-1.54-.15-2.31-.12-1.92-.56-4,1.2-5.52a5.06,5.06,0,0,0,1-1.09c.59-1,1.92-1.55,1.88-2.95,0-.28,0-.56-.26-.73s-.5.09-.69.26c-.8.73-1.61,1.44-2.37,2.2-.27.27-.48.52-.88.37s-.45-.49-.45-.85c0-1.93-.36-3.85-.24-5.79a6.75,6.75,0,0,0,0-1.62c-.08-.49-.26-1-.94-1a.91.91,0,0,0-.84,1.06c.15,3.34-.64,6.62-.7,10,0,.3.07.66-.31.79a.76.76,0,0,1-.84-.26,21.59,21.59,0,0,1-2.33-2.06.9.9,0,0,0-1.42-.21c-.45.44-.28,1,.16,1.43.14.14.27.28.41.41,1.25,1.2,2.49,2.39,3.75,3.58a.9.9,0,0,1,.34.7C330.7,32.68,331,34.2,330.48,35.68Z"/><path class="cls-4" d="M330.48,35.68c.49-1.48.22-3,.28-4.5a.9.9,0,0,0-.34-.7c-1.26-1.19-2.5-2.38-3.75-3.58-.14-.13-.27-.27-.41-.41-.44-.44-.61-1-.16-1.43a.9.9,0,0,1,1.42.21,21.59,21.59,0,0,0,2.33,2.06.76.76,0,0,0,.84.26c.38-.13.3-.49.31-.79.06-3.33.85-6.61.7-9.95a.91.91,0,0,1,.84-1.06c.68-.07.86.48.94,1a6.75,6.75,0,0,1,0,1.62c-.12,1.94.24,3.86.24,5.79,0,.36,0,.71.45.85s.61-.1.88-.37c.76-.76,1.57-1.47,2.37-2.2.19-.17.36-.45.69-.26s.26.45.26.73c0,1.4-1.29,1.94-1.88,2.95a5.06,5.06,0,0,1-1,1.09c-1.76,1.55-1.32,3.6-1.2,5.52.05.77.12,1.54.15,2.31-.32,2.44.26,4.85.23,7.28,0,.94.44,1.91-.15,2.82h-3.91c-.43-.25-.31-.65-.29-1,.14-2.28.26-4.56.38-6.84A1.73,1.73,0,0,0,330.48,35.68Z"/><path class="cls-3" d="M371.78,35.68a8.22,8.22,0,0,1-11.83-8,2.77,2.77,0,0,0-.42-1.75,8.16,8.16,0,0,1,4.94-12.44,1.57,1.57,0,0,0,1.37-1.42c1.23-6.32,8.86-8.29,13.27-4.65a7.88,7.88,0,0,1,2.6,3.9,1.27,1.27,0,0,0,1.15,1,8.2,8.2,0,0,1,5.78,12,1.82,1.82,0,0,0-.12,1.32c1.27,5.86-2.63,10.75-8.45,10.59-1.59,0-2.93-.87-4.33-1.5,0-.77-.09-1.54-.14-2.31-.12-1.92-.56-4,1.19-5.52a4.82,4.82,0,0,0,1-1.09c.59-1,1.92-1.55,1.89-2.95,0-.28,0-.56-.27-.73s-.49.09-.68.26c-.8.73-1.62,1.44-2.38,2.2-.27.27-.47.52-.88.37s-.45-.49-.45-.85c0-1.93-.36-3.85-.23-5.79a8,8,0,0,0,0-1.62c-.09-.49-.27-1-.94-1a.9.9,0,0,0-.84,1.06c.15,3.34-.64,6.62-.71,10,0,.3.07.66-.31.79a.76.76,0,0,1-.84-.26,21.59,21.59,0,0,1-2.33-2.06.89.89,0,0,0-1.41-.21c-.46.44-.29,1,.15,1.43l.41.41,3.75,3.58a.87.87,0,0,1,.34.7C372,32.68,372.26,34.2,371.78,35.68Z"/><path class="cls-4" d="M371.78,35.68c.48-1.48.21-3,.27-4.5a.87.87,0,0,0-.34-.7L368,26.9l-.41-.41c-.44-.44-.61-1-.15-1.43a.89.89,0,0,1,1.41.21,21.59,21.59,0,0,0,2.33,2.06.76.76,0,0,0,.84.26c.38-.13.3-.49.31-.79.07-3.33.86-6.61.71-9.95a.9.9,0,0,1,.84-1.06c.67-.07.85.48.94,1a8,8,0,0,1,0,1.62c-.13,1.94.23,3.86.23,5.79,0,.36.05.71.45.85s.61-.1.88-.37c.76-.76,1.58-1.47,2.38-2.2.19-.17.36-.45.68-.26s.26.45.27.73c0,1.4-1.3,1.94-1.89,2.95a4.82,4.82,0,0,1-1,1.09c-1.75,1.55-1.31,3.6-1.19,5.52,0,.77.12,1.54.14,2.31-.31,2.44.27,4.85.23,7.28,0,.94.45,1.91-.15,2.82h-3.91c-.43-.25-.3-.65-.28-1,.13-2.28.25-4.56.38-6.84A1.82,1.82,0,0,0,371.78,35.68Z"/><path class="cls-3" d="M413.07,35.68a8.22,8.22,0,0,1-11.83-8,2.77,2.77,0,0,0-.42-1.75,8.17,8.17,0,0,1,4.94-12.44,1.58,1.58,0,0,0,1.38-1.42c1.22-6.32,8.85-8.29,13.26-4.65a7.81,7.81,0,0,1,2.6,3.9,1.28,1.28,0,0,0,1.15,1,8.2,8.2,0,0,1,5.78,12,1.87,1.87,0,0,0-.12,1.32c1.28,5.86-2.63,10.75-8.45,10.59-1.59,0-2.93-.87-4.33-1.5,0-.77-.09-1.54-.14-2.31-.12-1.92-.56-4,1.19-5.52a4.87,4.87,0,0,0,1-1.09c.58-1,1.92-1.55,1.88-2.95,0-.28,0-.56-.26-.73s-.5.09-.69.26c-.8.73-1.61,1.44-2.38,2.2-.26.27-.47.52-.87.37s-.45-.49-.45-.85c0-1.93-.37-3.85-.24-5.79a7.3,7.3,0,0,0,0-1.62c-.08-.49-.27-1-.94-1a.91.91,0,0,0-.84,1.06c.15,3.34-.64,6.62-.71,10,0,.3.08.66-.31.79a.75.75,0,0,1-.83-.26,21.59,21.59,0,0,1-2.33-2.06.9.9,0,0,0-1.42-.21c-.46.44-.28,1,.16,1.43l.41.41c1.25,1.2,2.49,2.39,3.75,3.58a.9.9,0,0,1,.34.7C413.29,32.68,413.56,34.2,413.07,35.68Z"/><path class="cls-4" d="M413.07,35.68c.49-1.48.22-3,.28-4.5a.9.9,0,0,0-.34-.7c-1.26-1.19-2.5-2.38-3.75-3.58l-.41-.41c-.44-.44-.62-1-.16-1.43a.9.9,0,0,1,1.42.21,21.59,21.59,0,0,0,2.33,2.06.75.75,0,0,0,.83.26c.39-.13.31-.49.31-.79.07-3.33.86-6.61.71-9.95a.91.91,0,0,1,.84-1.06c.67-.07.86.48.94,1a7.3,7.3,0,0,1,0,1.62c-.13,1.94.24,3.86.24,5.79,0,.36,0,.71.45.85s.61-.1.87-.37c.77-.76,1.58-1.47,2.38-2.2.19-.17.36-.45.69-.26s.25.45.26.73c0,1.4-1.3,1.94-1.88,2.95a4.87,4.87,0,0,1-1,1.09c-1.75,1.55-1.31,3.6-1.19,5.52.05.77.12,1.54.14,2.31-.31,2.44.27,4.85.24,7.28,0,.94.44,1.91-.16,2.82h-3.9c-.44-.25-.31-.65-.29-1q.19-3.42.38-6.84A1.78,1.78,0,0,0,413.07,35.68Z"/><path class="cls-3" d="M454.37,36.68a8.22,8.22,0,0,1-11.83-8,2.78,2.78,0,0,0-.43-1.75,8.17,8.17,0,0,1,4.95-12.44,1.57,1.57,0,0,0,1.37-1.42c1.23-6.32,8.85-8.29,13.27-4.65a7.94,7.94,0,0,1,2.6,3.9,1.27,1.27,0,0,0,1.15,1,8.21,8.21,0,0,1,5.78,12,1.77,1.77,0,0,0-.12,1.32c1.27,5.86-2.63,10.75-8.45,10.59-1.59,0-2.93-.87-4.33-1.5,0-.77-.1-1.54-.14-2.31-.12-1.92-.56-4,1.19-5.52a5.06,5.06,0,0,0,1-1.09c.59-1,1.92-1.55,1.89-2.95,0-.28,0-.56-.27-.73s-.5.09-.69.26c-.79.73-1.61,1.44-2.37,2.2-.27.27-.48.52-.88.37s-.45-.49-.45-.85c0-1.93-.36-3.85-.24-5.79a6.75,6.75,0,0,0,0-1.62c-.08-.49-.26-1-.93-1a.9.9,0,0,0-.84,1.06c.15,3.34-.64,6.62-.71,10,0,.3.07.66-.31.79a.76.76,0,0,1-.84-.26,21.59,21.59,0,0,1-2.33-2.06.9.9,0,0,0-1.42-.21c-.45.44-.28,1,.16,1.43l.41.41,3.75,3.58a.87.87,0,0,1,.34.7C454.58,33.68,454.85,35.2,454.37,36.68Z"/><path class="cls-4" d="M454.37,36.68c.48-1.48.21-3,.27-4.5a.87.87,0,0,0-.34-.7l-3.75-3.58-.41-.41c-.44-.44-.61-1-.16-1.43a.9.9,0,0,1,1.42.21,21.59,21.59,0,0,0,2.33,2.06.76.76,0,0,0,.84.26c.38-.13.3-.49.31-.79.07-3.33.86-6.61.71-9.95a.9.9,0,0,1,.84-1.06c.67-.07.85.48.93,1a6.75,6.75,0,0,1,0,1.62c-.12,1.94.24,3.86.24,5.79,0,.36.05.71.45.85s.61-.1.88-.37c.76-.76,1.58-1.47,2.37-2.2.19-.17.37-.45.69-.26s.26.45.27.73c0,1.4-1.3,1.94-1.89,2.95a5.06,5.06,0,0,1-1,1.09c-1.75,1.55-1.31,3.6-1.19,5.52,0,.77.11,1.54.14,2.31-.32,2.44.27,4.85.23,7.28,0,.94.44,1.91-.15,2.82H454.5c-.43-.25-.31-.65-.28-1,.13-2.28.25-4.56.38-6.84A1.82,1.82,0,0,0,454.37,36.68Z"/><path class="cls-3" d="M495.66,36.68a8.22,8.22,0,0,1-11.83-8,2.77,2.77,0,0,0-.42-1.75,8.16,8.16,0,0,1,4.94-12.44,1.58,1.58,0,0,0,1.38-1.42C491,6.74,498.58,4.77,503,8.41a7.88,7.88,0,0,1,2.6,3.9,1.28,1.28,0,0,0,1.15,1,8.2,8.2,0,0,1,5.78,12,1.82,1.82,0,0,0-.12,1.32c1.28,5.86-2.63,10.75-8.45,10.59-1.59,0-2.93-.87-4.33-1.5,0-.77-.09-1.54-.14-2.31-.12-1.92-.56-4,1.19-5.52a4.61,4.61,0,0,0,1-1.09c.59-1,1.92-1.55,1.89-2.95,0-.28,0-.56-.27-.73s-.49.09-.68.26c-.8.73-1.61,1.44-2.38,2.2-.26.27-.47.52-.87.37s-.45-.49-.45-.85c0-1.93-.37-3.85-.24-5.79a7.3,7.3,0,0,0,0-1.62c-.08-.49-.27-1-.94-1a.9.9,0,0,0-.84,1.06c.15,3.34-.64,6.62-.71,10,0,.3.08.66-.31.79a.76.76,0,0,1-.84-.26,20.58,20.58,0,0,1-2.32-2.06.9.9,0,0,0-1.42-.21c-.46.44-.28,1,.16,1.43.13.14.27.28.41.41q1.86,1.8,3.75,3.58a.9.9,0,0,1,.34.7C495.88,33.68,496.15,35.2,495.66,36.68Z"/><path class="cls-4" d="M495.66,36.68c.49-1.48.22-3,.28-4.5a.9.9,0,0,0-.34-.7q-1.89-1.78-3.75-3.58c-.14-.13-.28-.27-.41-.41-.44-.44-.62-1-.16-1.43a.9.9,0,0,1,1.42.21A20.58,20.58,0,0,0,495,28.33a.76.76,0,0,0,.84.26c.39-.13.31-.49.31-.79.07-3.33.86-6.61.71-9.95a.9.9,0,0,1,.84-1.06c.67-.07.86.48.94,1a7.3,7.3,0,0,1,0,1.62c-.13,1.94.23,3.86.24,5.79,0,.36,0,.71.45.85s.61-.1.87-.37c.77-.76,1.58-1.47,2.38-2.2.19-.17.36-.45.68-.26s.26.45.27.73c0,1.4-1.3,1.94-1.89,2.95a4.61,4.61,0,0,1-1,1.09c-1.75,1.55-1.31,3.6-1.19,5.52,0,.77.12,1.54.14,2.31-.31,2.44.27,4.85.24,7.28,0,.94.44,1.91-.16,2.82h-3.91c-.43-.25-.3-.65-.28-1,.13-2.28.25-4.56.38-6.84A1.78,1.78,0,0,0,495.66,36.68Z"/><path class="cls-3" d="M537,36.68a8.22,8.22,0,0,1-11.83-8,2.71,2.71,0,0,0-.42-1.75,8.17,8.17,0,0,1,4.95-12.44A1.58,1.58,0,0,0,531,13.06c1.22-6.32,8.85-8.29,13.27-4.65a7.86,7.86,0,0,1,2.59,3.9,1.29,1.29,0,0,0,1.15,1,8.2,8.2,0,0,1,5.79,12,1.82,1.82,0,0,0-.13,1.32c1.28,5.86-2.62,10.75-8.45,10.59a11.37,11.37,0,0,1-4.32-1.5c0-.77-.1-1.54-.14-2.31-.13-1.92-.56-4,1.19-5.52a5.06,5.06,0,0,0,1-1.09c.59-1,1.92-1.55,1.88-2.95,0-.28,0-.56-.26-.73s-.5.09-.69.26c-.8.73-1.61,1.44-2.37,2.2-.27.27-.48.52-.88.37s-.45-.49-.45-.85c0-1.93-.36-3.85-.24-5.79a6.75,6.75,0,0,0,0-1.62c-.08-.49-.26-1-.93-1a.91.91,0,0,0-.85,1.06c.16,3.34-.64,6.62-.7,10,0,.3.07.66-.31.79a.76.76,0,0,1-.84-.26A21.59,21.59,0,0,1,534,26.27a.9.9,0,0,0-1.42-.21c-.45.44-.28,1,.16,1.43l.41.41c1.25,1.2,2.49,2.39,3.75,3.58a.9.9,0,0,1,.34.7C537.17,33.68,537.44,35.2,537,36.68Z"/><path class="cls-4" d="M537,36.68c.49-1.48.22-3,.28-4.5a.9.9,0,0,0-.34-.7c-1.26-1.19-2.5-2.38-3.75-3.58l-.41-.41c-.44-.44-.61-1-.16-1.43a.9.9,0,0,1,1.42.21,21.59,21.59,0,0,0,2.33,2.06.76.76,0,0,0,.84.26c.38-.13.3-.49.31-.79.06-3.33.86-6.61.7-9.95a.91.91,0,0,1,.85-1.06c.67-.07.85.48.93,1a6.75,6.75,0,0,1,0,1.62c-.12,1.94.24,3.86.24,5.79,0,.36,0,.71.45.85s.61-.1.88-.37c.76-.76,1.57-1.47,2.37-2.2.19-.17.37-.45.69-.26s.26.45.26.73c0,1.4-1.29,1.94-1.88,2.95A5.06,5.06,0,0,1,542,28c-1.75,1.55-1.32,3.6-1.19,5.52,0,.77.11,1.54.14,2.31-.32,2.44.26,4.85.23,7.28,0,.94.44,1.91-.15,2.82h-3.91c-.43-.25-.31-.65-.29-1,.14-2.28.26-4.56.38-6.84A1.73,1.73,0,0,0,537,36.68Z"/><path class="cls-3" d="M578.25,35.68a8.22,8.22,0,0,1-11.83-8,2.77,2.77,0,0,0-.42-1.75,8.16,8.16,0,0,1,4.94-12.44,1.57,1.57,0,0,0,1.37-1.42c1.23-6.32,8.86-8.29,13.27-4.65a7.88,7.88,0,0,1,2.6,3.9,1.27,1.27,0,0,0,1.15,1,8.2,8.2,0,0,1,5.78,12A1.82,1.82,0,0,0,595,25.7c1.27,5.86-2.63,10.75-8.45,10.59-1.59,0-2.93-.87-4.33-1.5,0-.77-.09-1.54-.14-2.31-.12-1.92-.56-4,1.19-5.52a4.61,4.61,0,0,0,1-1.09c.59-1,1.92-1.55,1.89-2.95,0-.28,0-.56-.27-.73s-.49.09-.68.26c-.8.73-1.62,1.44-2.38,2.2-.27.27-.47.52-.88.37s-.44-.49-.45-.85c0-1.93-.36-3.85-.23-5.79a8,8,0,0,0,0-1.62c-.09-.49-.27-1-.94-1a.9.9,0,0,0-.84,1.06c.15,3.34-.64,6.62-.71,10,0,.3.07.66-.31.79a.76.76,0,0,1-.84-.26,20.58,20.58,0,0,1-2.32-2.06.9.9,0,0,0-1.42-.21c-.46.44-.29,1,.15,1.43l.41.41,3.76,3.58a.86.86,0,0,1,.33.7C578.46,32.68,578.74,34.2,578.25,35.68Z"/><path class="cls-4" d="M578.25,35.68c.49-1.48.21-3,.27-4.5a.86.86,0,0,0-.33-.7l-3.76-3.58-.41-.41c-.44-.44-.61-1-.15-1.43a.9.9,0,0,1,1.42.21,20.58,20.58,0,0,0,2.32,2.06.76.76,0,0,0,.84.26c.38-.13.3-.49.31-.79.07-3.33.86-6.61.71-9.95a.9.9,0,0,1,.84-1.06c.67-.07.85.48.94,1a8,8,0,0,1,0,1.62c-.13,1.94.23,3.86.23,5.79,0,.36.05.71.45.85s.61-.1.88-.37c.76-.76,1.58-1.47,2.38-2.2.19-.17.36-.45.68-.26s.26.45.27.73c0,1.4-1.3,1.94-1.89,2.95a4.61,4.61,0,0,1-1,1.09c-1.75,1.55-1.31,3.6-1.19,5.52,0,.77.12,1.54.14,2.31-.31,2.44.27,4.85.24,7.28,0,.94.44,1.91-.16,2.82h-3.91c-.43-.25-.3-.65-.28-1,.13-2.28.25-4.56.38-6.84A1.82,1.82,0,0,0,578.25,35.68Z"/><path class="cls-3" d="M619.54,35.68a8.22,8.22,0,0,1-11.83-8,2.77,2.77,0,0,0-.42-1.75,8.17,8.17,0,0,1,4.94-12.44,1.58,1.58,0,0,0,1.38-1.42c1.22-6.32,8.85-8.29,13.26-4.65a7.81,7.81,0,0,1,2.6,3.9,1.28,1.28,0,0,0,1.15,1,8.2,8.2,0,0,1,5.78,12,1.87,1.87,0,0,0-.12,1.32c1.28,5.86-2.63,10.75-8.45,10.59-1.59,0-2.93-.87-4.33-1.5,0-.77-.09-1.54-.14-2.31-.12-1.92-.56-4,1.19-5.52a4.87,4.87,0,0,0,1-1.09c.58-1,1.92-1.55,1.88-2.95,0-.28,0-.56-.26-.73s-.5.09-.69.26c-.8.73-1.61,1.44-2.38,2.2-.26.27-.47.52-.87.37s-.45-.49-.45-.85c0-1.93-.37-3.85-.24-5.79a7.3,7.3,0,0,0,0-1.62c-.08-.49-.27-1-.94-1a.91.91,0,0,0-.84,1.06c.15,3.34-.64,6.62-.71,10,0,.3.08.66-.31.79a.75.75,0,0,1-.83-.26,21.59,21.59,0,0,1-2.33-2.06.9.9,0,0,0-1.42-.21c-.46.44-.28,1,.16,1.43l.41.41c1.25,1.2,2.49,2.39,3.75,3.58a.9.9,0,0,1,.34.7C619.76,32.68,620,34.2,619.54,35.68Z"/><path class="cls-4" d="M619.54,35.68c.49-1.48.22-3,.28-4.5a.9.9,0,0,0-.34-.7c-1.26-1.19-2.5-2.38-3.75-3.58l-.41-.41c-.44-.44-.62-1-.16-1.43a.9.9,0,0,1,1.42.21,21.59,21.59,0,0,0,2.33,2.06.75.75,0,0,0,.83.26c.39-.13.31-.49.31-.79.07-3.33.86-6.61.71-9.95a.91.91,0,0,1,.84-1.06c.67-.07.86.48.94,1a7.3,7.3,0,0,1,0,1.62c-.13,1.94.24,3.86.24,5.79,0,.36,0,.71.45.85s.61-.1.87-.37c.77-.76,1.58-1.47,2.38-2.2.19-.17.36-.45.69-.26s.26.45.26.73c0,1.4-1.3,1.94-1.88,2.95a4.87,4.87,0,0,1-1,1.09c-1.75,1.55-1.31,3.6-1.19,5.52,0,.77.12,1.54.14,2.31-.31,2.44.27,4.85.24,7.28,0,.94.44,1.91-.15,2.82h-3.91c-.43-.25-.31-.65-.29-1q.2-3.42.38-6.84A1.78,1.78,0,0,0,619.54,35.68Z"/><path class="cls-3" d="M660.84,35.68a8.22,8.22,0,0,1-11.83-8,2.72,2.72,0,0,0-.43-1.75,8.17,8.17,0,0,1,4.95-12.44,1.57,1.57,0,0,0,1.37-1.42c1.23-6.32,8.85-8.29,13.27-4.65a7.88,7.88,0,0,1,2.6,3.9,1.27,1.27,0,0,0,1.15,1,8.21,8.21,0,0,1,5.78,12,1.82,1.82,0,0,0-.12,1.32c1.27,5.86-2.63,10.75-8.45,10.59-1.59,0-2.93-.87-4.33-1.5,0-.77-.09-1.54-.14-2.31-.12-1.92-.56-4,1.19-5.52a5.06,5.06,0,0,0,1-1.09c.59-1,1.92-1.55,1.89-2.95,0-.28,0-.56-.27-.73s-.49.09-.69.26c-.79.73-1.61,1.44-2.37,2.2-.27.27-.47.52-.88.37s-.45-.49-.45-.85c0-1.93-.36-3.85-.24-5.79a6.75,6.75,0,0,0,0-1.62c-.08-.49-.26-1-.93-1a.9.9,0,0,0-.84,1.06c.15,3.34-.64,6.62-.71,10,0,.3.07.66-.31.79a.76.76,0,0,1-.84-.26,21.59,21.59,0,0,1-2.33-2.06.9.9,0,0,0-1.42-.21c-.45.44-.28,1,.16,1.43l.41.41,3.75,3.58a.87.87,0,0,1,.34.7C661.05,32.68,661.32,34.2,660.84,35.68Z"/><path class="cls-4" d="M660.84,35.68c.48-1.48.21-3,.27-4.5a.87.87,0,0,0-.34-.7L657,26.9l-.41-.41c-.44-.44-.61-1-.16-1.43a.9.9,0,0,1,1.42.21,21.59,21.59,0,0,0,2.33,2.06.76.76,0,0,0,.84.26c.38-.13.3-.49.31-.79.07-3.33.86-6.61.71-9.95a.9.9,0,0,1,.84-1.06c.67-.07.85.48.93,1a6.75,6.75,0,0,1,0,1.62c-.12,1.94.24,3.86.24,5.79,0,.36,0,.71.45.85s.61-.1.88-.37c.76-.76,1.58-1.47,2.37-2.2.2-.17.37-.45.69-.26s.26.45.27.73c0,1.4-1.3,1.94-1.89,2.95a5.06,5.06,0,0,1-1,1.09c-1.75,1.55-1.31,3.6-1.19,5.52.05.77.11,1.54.14,2.31-.32,2.44.27,4.85.23,7.28,0,.94.44,1.91-.15,2.82H661c-.43-.25-.31-.65-.28-1,.13-2.28.25-4.56.38-6.84A1.82,1.82,0,0,0,660.84,35.68Z"/><path class="cls-3" d="M702.13,36.68a8.22,8.22,0,0,1-11.83-8,2.77,2.77,0,0,0-.42-1.75,8.16,8.16,0,0,1,4.94-12.44,1.58,1.58,0,0,0,1.38-1.42c1.22-6.32,8.85-8.29,13.26-4.65a7.81,7.81,0,0,1,2.6,3.9,1.28,1.28,0,0,0,1.15,1,8.2,8.2,0,0,1,5.78,12,1.82,1.82,0,0,0-.12,1.32c1.28,5.86-2.63,10.75-8.45,10.59-1.59,0-2.93-.87-4.33-1.5,0-.77-.09-1.54-.14-2.31-.12-1.92-.56-4,1.19-5.52a4.61,4.61,0,0,0,1-1.09c.59-1,1.93-1.55,1.89-2.95,0-.28,0-.56-.27-.73s-.49.09-.68.26c-.8.73-1.61,1.44-2.38,2.2-.26.27-.47.52-.87.37s-.45-.49-.45-.85c0-1.93-.37-3.85-.24-5.79a7.3,7.3,0,0,0,0-1.62c-.08-.49-.27-1-.94-1a.9.9,0,0,0-.84,1.06c.15,3.34-.64,6.62-.71,10,0,.3.08.66-.31.79a.75.75,0,0,1-.83-.26,19.84,19.84,0,0,1-2.33-2.06.9.9,0,0,0-1.42-.21c-.46.44-.28,1,.16,1.43.13.14.27.28.41.41,1.25,1.2,2.49,2.39,3.75,3.58a.9.9,0,0,1,.34.7C702.35,33.68,702.62,35.2,702.13,36.68Z"/><path class="cls-4" d="M702.13,36.68c.49-1.48.22-3,.28-4.5a.9.9,0,0,0-.34-.7c-1.26-1.19-2.5-2.38-3.75-3.58-.14-.13-.28-.27-.41-.41-.44-.44-.62-1-.16-1.43a.9.9,0,0,1,1.42.21,19.84,19.84,0,0,0,2.33,2.06.75.75,0,0,0,.83.26c.39-.13.31-.49.31-.79.07-3.33.86-6.61.71-9.95a.9.9,0,0,1,.84-1.06c.67-.07.86.48.94,1a7.3,7.3,0,0,1,0,1.62c-.13,1.94.23,3.86.24,5.79,0,.36,0,.71.45.85s.61-.1.87-.37c.77-.76,1.58-1.47,2.38-2.2.19-.17.36-.45.68-.26s.26.45.27.73c0,1.4-1.3,1.94-1.89,2.95a4.61,4.61,0,0,1-1,1.09c-1.75,1.55-1.31,3.6-1.19,5.52,0,.77.12,1.54.14,2.31-.31,2.44.27,4.85.24,7.28,0,.94.44,1.91-.16,2.82h-3.9c-.44-.25-.31-.65-.29-1,.13-2.28.25-4.56.38-6.84A1.78,1.78,0,0,0,702.13,36.68Z"/><path class="cls-3" d="M743.42,36.68a8.23,8.23,0,0,1-11.83-8,2.71,2.71,0,0,0-.42-1.75,8.17,8.17,0,0,1,5-12.44,1.58,1.58,0,0,0,1.37-1.42c1.22-6.32,8.85-8.29,13.27-4.65a7.86,7.86,0,0,1,2.59,3.9,1.29,1.29,0,0,0,1.16,1,8.21,8.21,0,0,1,5.78,12,1.77,1.77,0,0,0-.12,1.32c1.27,5.86-2.63,10.75-8.46,10.59a11.37,11.37,0,0,1-4.32-1.5c0-.77-.1-1.54-.14-2.31-.13-1.92-.56-4,1.19-5.52a5.06,5.06,0,0,0,1-1.09c.59-1,1.92-1.55,1.88-2.95,0-.28,0-.56-.26-.73s-.5.09-.69.26c-.8.73-1.61,1.44-2.37,2.2-.27.27-.48.52-.88.37s-.45-.49-.45-.85c0-1.93-.36-3.85-.24-5.79a6.75,6.75,0,0,0,0-1.62c-.08-.49-.26-1-.93-1a.91.91,0,0,0-.85,1.06c.16,3.34-.64,6.62-.7,10,0,.3.07.66-.31.79a.76.76,0,0,1-.84-.26,21.59,21.59,0,0,1-2.33-2.06.9.9,0,0,0-1.42-.21c-.45.44-.28,1,.16,1.43l.41.41c1.25,1.2,2.49,2.39,3.75,3.58a.9.9,0,0,1,.34.7C743.64,33.68,743.91,35.2,743.42,36.68Z"/><path class="cls-4" d="M743.42,36.68c.49-1.48.22-3,.28-4.5a.9.9,0,0,0-.34-.7c-1.26-1.19-2.5-2.38-3.75-3.58l-.41-.41c-.44-.44-.61-1-.16-1.43a.9.9,0,0,1,1.42.21,21.59,21.59,0,0,0,2.33,2.06.76.76,0,0,0,.84.26c.38-.13.3-.49.31-.79.06-3.33.86-6.61.7-9.95a.91.91,0,0,1,.85-1.06c.67-.07.85.48.93,1a6.75,6.75,0,0,1,0,1.62c-.12,1.94.24,3.86.24,5.79,0,.36,0,.71.45.85s.61-.1.88-.37c.76-.76,1.57-1.47,2.37-2.2.19-.17.37-.45.69-.26s.26.45.26.73c0,1.4-1.29,1.94-1.88,2.95a5.06,5.06,0,0,1-1,1.09c-1.75,1.55-1.32,3.6-1.19,5.52,0,.77.11,1.54.14,2.31-.32,2.44.26,4.85.23,7.28,0,.94.44,1.91-.15,2.82h-3.91c-.43-.25-.31-.65-.29-1,.14-2.28.26-4.56.38-6.84A1.73,1.73,0,0,0,743.42,36.68Z"/><path class="cls-3" d="M784.72,36.68a8.22,8.22,0,0,1-11.83-8,2.77,2.77,0,0,0-.42-1.75,8.16,8.16,0,0,1,4.94-12.44,1.57,1.57,0,0,0,1.37-1.42c1.23-6.32,8.86-8.29,13.27-4.65a7.88,7.88,0,0,1,2.6,3.9,1.27,1.27,0,0,0,1.15,1,8.2,8.2,0,0,1,5.78,12,1.82,1.82,0,0,0-.12,1.32c1.27,5.86-2.63,10.75-8.45,10.59-1.59,0-2.93-.87-4.33-1.5,0-.77-.09-1.54-.14-2.31-.12-1.92-.56-4,1.19-5.52a4.61,4.61,0,0,0,1-1.09c.59-1,1.92-1.55,1.89-2.95,0-.28,0-.56-.27-.73s-.49.09-.68.26c-.8.73-1.62,1.44-2.38,2.2-.27.27-.47.52-.87.37s-.45-.49-.45-.85c0-1.93-.37-3.85-.24-5.79a7.3,7.3,0,0,0,0-1.62c-.08-.49-.27-1-.94-1a.9.9,0,0,0-.84,1.06c.15,3.34-.64,6.62-.71,10,0,.3.08.66-.31.79a.76.76,0,0,1-.84-.26,20.58,20.58,0,0,1-2.32-2.06.9.9,0,0,0-1.42-.21c-.46.44-.28,1,.15,1.43l.41.41,3.76,3.58a.86.86,0,0,1,.33.7C784.93,33.68,785.21,35.2,784.72,36.68Z"/><path class="cls-4" d="M784.72,36.68c.49-1.48.21-3,.27-4.5a.86.86,0,0,0-.33-.7L780.9,27.9l-.41-.41c-.43-.44-.61-1-.15-1.43a.9.9,0,0,1,1.42.21,20.58,20.58,0,0,0,2.32,2.06.76.76,0,0,0,.84.26c.39-.13.3-.49.31-.79.07-3.33.86-6.61.71-9.95a.9.9,0,0,1,.84-1.06c.67-.07.86.48.94,1a7.3,7.3,0,0,1,0,1.62c-.13,1.94.23,3.86.24,5.79,0,.36,0,.71.45.85s.6-.1.87-.37c.76-.76,1.58-1.47,2.38-2.2.19-.17.36-.45.68-.26s.26.45.27.73c0,1.4-1.3,1.94-1.89,2.95a4.61,4.61,0,0,1-1,1.09c-1.75,1.55-1.31,3.6-1.19,5.52.05.77.12,1.54.14,2.31-.31,2.44.27,4.85.24,7.28,0,.94.44,1.91-.16,2.82h-3.91c-.43-.25-.3-.65-.28-1,.13-2.28.25-4.56.38-6.84A1.82,1.82,0,0,0,784.72,36.68Z"/><path class="cls-3" d="M826,37.68a8.22,8.22,0,0,1-11.83-8,2.71,2.71,0,0,0-.42-1.75,8.17,8.17,0,0,1,5-12.44,1.58,1.58,0,0,0,1.37-1.42c1.22-6.32,8.85-8.29,13.27-4.65a7.86,7.86,0,0,1,2.59,3.9,1.28,1.28,0,0,0,1.15,1,8.2,8.2,0,0,1,5.78,12,1.87,1.87,0,0,0-.12,1.32c1.28,5.86-2.63,10.75-8.45,10.59a11.47,11.47,0,0,1-4.33-1.5c0-.77-.09-1.54-.14-2.31-.12-1.92-.56-4,1.19-5.52a4.87,4.87,0,0,0,1-1.09c.58-1,1.92-1.55,1.88-2.95,0-.28,0-.56-.26-.73s-.5.09-.69.26c-.8.73-1.61,1.44-2.38,2.2-.26.27-.47.52-.87.37s-.45-.49-.45-.85c0-1.93-.37-3.85-.24-5.79a6.75,6.75,0,0,0,0-1.62c-.08-.49-.26-1-.94-1a.91.91,0,0,0-.84,1.06c.15,3.34-.64,6.62-.71,10,0,.3.08.66-.3.79a.76.76,0,0,1-.84-.26,21.59,21.59,0,0,1-2.33-2.06.9.9,0,0,0-1.42-.21c-.45.44-.28,1,.16,1.43.14.14.27.28.41.41,1.25,1.2,2.49,2.39,3.75,3.58a.9.9,0,0,1,.34.7C826.23,34.68,826.5,36.2,826,37.68Z"/><path class="cls-4" d="M826,37.68c.49-1.48.22-3,.28-4.5a.9.9,0,0,0-.34-.7c-1.26-1.19-2.5-2.38-3.75-3.58-.14-.13-.27-.27-.41-.41-.44-.44-.61-1-.16-1.43a.9.9,0,0,1,1.42.21,21.59,21.59,0,0,0,2.33,2.06.76.76,0,0,0,.84.26c.38-.13.3-.49.3-.79.07-3.33.86-6.61.71-9.95a.91.91,0,0,1,.84-1.06c.68-.07.86.48.94,1a6.75,6.75,0,0,1,0,1.62c-.13,1.94.24,3.86.24,5.79,0,.36,0,.71.45.85s.61-.1.87-.37c.77-.76,1.58-1.47,2.38-2.2.19-.17.36-.45.69-.26s.26.45.26.73c0,1.4-1.3,1.94-1.88,2.95A4.87,4.87,0,0,1,831,29c-1.75,1.55-1.31,3.6-1.19,5.52,0,.77.12,1.54.14,2.31-.31,2.44.27,4.85.24,7.28,0,.94.44,1.91-.15,2.82h-3.91c-.43-.25-.31-.65-.29-1q.2-3.42.38-6.84A1.73,1.73,0,0,0,826,37.68Z"/><path class="cls-3" d="M867.31,37.68a8.22,8.22,0,0,1-11.83-8,2.77,2.77,0,0,0-.42-1.75A8.16,8.16,0,0,1,860,15.48a1.57,1.57,0,0,0,1.37-1.42c1.23-6.32,8.86-8.29,13.27-4.65a7.88,7.88,0,0,1,2.6,3.9,1.27,1.27,0,0,0,1.15,1,8.21,8.21,0,0,1,5.78,12,1.82,1.82,0,0,0-.12,1.32c1.27,5.86-2.63,10.75-8.45,10.59-1.59,0-2.93-.87-4.33-1.5,0-.77-.09-1.54-.14-2.31-.12-1.92-.56-4,1.19-5.52a5.06,5.06,0,0,0,1-1.09c.59-1,1.92-1.55,1.89-2.95,0-.28,0-.56-.27-.73s-.49.09-.68.26c-.8.73-1.62,1.44-2.38,2.2-.27.27-.47.52-.88.37s-.45-.49-.45-.85c0-1.93-.36-3.85-.24-5.79a7.3,7.3,0,0,0,0-1.62c-.09-.49-.27-1-.94-1a.9.9,0,0,0-.84,1.06c.15,3.34-.64,6.62-.71,10,0,.3.07.66-.31.79a.76.76,0,0,1-.84-.26,21.59,21.59,0,0,1-2.33-2.06.89.89,0,0,0-1.41-.21c-.46.44-.29,1,.15,1.43l.41.41,3.75,3.58a.87.87,0,0,1,.34.7C867.52,34.68,867.79,36.2,867.31,37.68Z"/><path class="cls-4" d="M867.31,37.68c.48-1.48.21-3,.27-4.5a.87.87,0,0,0-.34-.7l-3.75-3.58-.41-.41c-.44-.44-.61-1-.15-1.43a.89.89,0,0,1,1.41.21,21.59,21.59,0,0,0,2.33,2.06.76.76,0,0,0,.84.26c.38-.13.3-.49.31-.79.07-3.33.86-6.61.71-9.95a.9.9,0,0,1,.84-1.06c.67-.07.85.48.94,1a7.3,7.3,0,0,1,0,1.62c-.12,1.94.24,3.86.24,5.79,0,.36,0,.71.45.85s.61-.1.88-.37c.76-.76,1.58-1.47,2.38-2.2.19-.17.36-.45.68-.26s.26.45.27.73c0,1.4-1.3,1.94-1.89,2.95a5.06,5.06,0,0,1-1,1.09c-1.75,1.55-1.31,3.6-1.19,5.52,0,.77.11,1.54.14,2.31-.32,2.44.27,4.85.23,7.28,0,.94.44,1.91-.15,2.82h-3.91c-.43-.25-.3-.65-.28-1,.13-2.28.25-4.56.38-6.84A1.82,1.82,0,0,0,867.31,37.68Z"/><path class="cls-3" d="M908.6,37.68a8.22,8.22,0,0,1-11.83-8,2.77,2.77,0,0,0-.42-1.75,8.17,8.17,0,0,1,4.94-12.44,1.58,1.58,0,0,0,1.38-1.42c1.22-6.32,8.85-8.29,13.26-4.65a7.81,7.81,0,0,1,2.6,3.9,1.28,1.28,0,0,0,1.15,1,8.2,8.2,0,0,1,5.78,12,1.82,1.82,0,0,0-.12,1.32c1.28,5.86-2.63,10.75-8.45,10.59-1.59,0-2.93-.87-4.33-1.5,0-.77-.09-1.54-.14-2.31-.12-1.92-.56-4,1.19-5.52a4.61,4.61,0,0,0,1-1.09c.59-1,1.93-1.55,1.89-2.95,0-.28,0-.56-.27-.73s-.49.09-.68.26c-.8.73-1.61,1.44-2.38,2.2-.26.27-.47.52-.87.37s-.45-.49-.45-.85c0-1.93-.37-3.85-.24-5.79a7.3,7.3,0,0,0,0-1.62c-.08-.49-.27-1-.94-1a.91.91,0,0,0-.84,1.06c.15,3.34-.64,6.62-.71,10,0,.3.08.66-.31.79a.75.75,0,0,1-.83-.26,19.84,19.84,0,0,1-2.33-2.06.9.9,0,0,0-1.42-.21c-.46.44-.28,1,.16,1.43l.41.41c1.25,1.2,2.49,2.39,3.75,3.58a.9.9,0,0,1,.34.7C908.82,34.68,909.09,36.2,908.6,37.68Z"/><path class="cls-4" d="M908.6,37.68c.49-1.48.22-3,.28-4.5a.9.9,0,0,0-.34-.7c-1.26-1.19-2.5-2.38-3.75-3.58l-.41-.41c-.44-.44-.62-1-.16-1.43a.9.9,0,0,1,1.42.21A19.84,19.84,0,0,0,908,29.33a.75.75,0,0,0,.83.26c.39-.13.31-.49.31-.79.07-3.33.86-6.61.71-9.95a.91.91,0,0,1,.84-1.06c.67-.07.86.48.94,1a7.3,7.3,0,0,1,0,1.62c-.13,1.94.23,3.86.24,5.79,0,.36,0,.71.45.85s.61-.1.87-.37c.77-.76,1.58-1.47,2.38-2.2.19-.17.36-.45.68-.26s.26.45.27.73c0,1.4-1.3,1.94-1.89,2.95a4.61,4.61,0,0,1-1,1.09c-1.75,1.55-1.31,3.6-1.19,5.52.05.77.12,1.54.14,2.31-.31,2.44.27,4.85.24,7.28,0,.94.44,1.91-.16,2.82h-3.9c-.44-.25-.31-.65-.29-1,.13-2.28.25-4.56.38-6.84A1.78,1.78,0,0,0,908.6,37.68Z"/><path class="cls-3" d="M949.9,38.68a8.23,8.23,0,0,1-11.84-8,2.71,2.71,0,0,0-.42-1.75,8.17,8.17,0,0,1,5-12.44A1.57,1.57,0,0,0,944,15.06c1.22-6.32,8.85-8.29,13.27-4.65a7.94,7.94,0,0,1,2.6,3.9,1.27,1.27,0,0,0,1.15,1,8.21,8.21,0,0,1,5.78,12,1.77,1.77,0,0,0-.12,1.32c1.27,5.86-2.63,10.75-8.45,10.59a11.35,11.35,0,0,1-4.33-1.5c0-.77-.1-1.54-.14-2.31-.12-1.92-.56-4,1.19-5.52a5.06,5.06,0,0,0,1-1.09c.59-1,1.92-1.55,1.89-2.95,0-.28,0-.56-.27-.73s-.5.09-.69.26c-.8.73-1.61,1.44-2.37,2.2-.27.27-.48.52-.88.37s-.45-.49-.45-.85c0-1.93-.36-3.85-.24-5.79a6.75,6.75,0,0,0,0-1.62c-.08-.49-.26-1-.93-1a.91.91,0,0,0-.85,1.06c.16,3.34-.63,6.62-.7,10,0,.3.07.66-.31.79a.76.76,0,0,1-.84-.26,21.59,21.59,0,0,1-2.33-2.06.9.9,0,0,0-1.42-.21c-.45.44-.28,1,.16,1.43l.41.41c1.25,1.2,2.49,2.39,3.75,3.58a.87.87,0,0,1,.34.7C950.11,35.68,950.38,37.2,949.9,38.68Z"/><path class="cls-4" d="M949.9,38.68c.48-1.48.21-3,.27-4.5a.87.87,0,0,0-.34-.7c-1.26-1.19-2.5-2.38-3.75-3.58l-.41-.41c-.44-.44-.61-1-.16-1.43a.9.9,0,0,1,1.42.21,21.59,21.59,0,0,0,2.33,2.06.76.76,0,0,0,.84.26c.38-.13.3-.49.31-.79.07-3.33.86-6.61.7-9.95a.91.91,0,0,1,.85-1.06c.67-.07.85.48.93,1a6.75,6.75,0,0,1,0,1.62c-.12,1.94.24,3.86.24,5.79,0,.36,0,.71.45.85s.61-.1.88-.37c.76-.76,1.57-1.47,2.37-2.2.19-.17.37-.45.69-.26s.26.45.27.73c0,1.4-1.3,1.94-1.89,2.95a5.06,5.06,0,0,1-1,1.09c-1.75,1.55-1.31,3.6-1.19,5.52,0,.77.11,1.54.14,2.31-.32,2.44.26,4.85.23,7.28,0,.94.44,1.91-.15,2.82H950c-.43-.25-.31-.65-.28-1q.19-3.42.37-6.84A1.77,1.77,0,0,0,949.9,38.68Z"/><path class="cls-3" d="M991.19,38.68a8.22,8.22,0,0,1-11.83-8,2.77,2.77,0,0,0-.42-1.75,8.16,8.16,0,0,1,4.94-12.44,1.59,1.59,0,0,0,1.38-1.42c1.22-6.32,8.85-8.29,13.26-4.65a7.88,7.88,0,0,1,2.6,3.9,1.28,1.28,0,0,0,1.15,1,8.2,8.2,0,0,1,5.78,12,1.82,1.82,0,0,0-.12,1.32c1.28,5.86-2.63,10.75-8.45,10.59-1.59,0-2.93-.87-4.33-1.5,0-.77-.09-1.54-.14-2.31-.12-1.92-.56-4,1.19-5.52a4.61,4.61,0,0,0,1-1.09c.59-1,1.92-1.55,1.89-2.95,0-.28,0-.56-.27-.73s-.49.09-.68.26c-.8.73-1.61,1.44-2.38,2.2-.27.27-.47.52-.87.37s-.45-.49-.45-.85c0-1.93-.37-3.85-.24-5.79a7.3,7.3,0,0,0,0-1.62c-.08-.49-.27-1-.94-1a.9.9,0,0,0-.84,1.06c.15,3.34-.64,6.62-.71,10,0,.3.08.66-.31.79a.76.76,0,0,1-.84-.26,20.58,20.58,0,0,1-2.32-2.06.9.9,0,0,0-1.42-.21c-.46.44-.28,1,.16,1.43l.41.41q1.86,1.8,3.75,3.58a.86.86,0,0,1,.33.7C991.41,35.68,991.68,37.2,991.19,38.68Z"/><path class="cls-4" d="M991.19,38.68c.49-1.48.22-3,.27-4.5a.86.86,0,0,0-.33-.7q-1.89-1.78-3.75-3.58l-.41-.41c-.44-.44-.62-1-.16-1.43a.9.9,0,0,1,1.42.21,20.58,20.58,0,0,0,2.32,2.06.76.76,0,0,0,.84.26c.39-.13.31-.49.31-.79.07-3.33.86-6.61.71-9.95a.9.9,0,0,1,.84-1.06c.67-.07.86.48.94,1a7.3,7.3,0,0,1,0,1.62c-.13,1.94.23,3.86.24,5.79,0,.36,0,.71.45.85s.6-.1.87-.37c.77-.76,1.58-1.47,2.38-2.2.19-.17.36-.45.68-.26s.26.45.27.73c0,1.4-1.3,1.94-1.89,2.95a4.61,4.61,0,0,1-1,1.09c-1.75,1.55-1.31,3.6-1.19,5.52,0,.77.12,1.54.14,2.31-.31,2.44.27,4.85.24,7.28,0,.94.44,1.91-.16,2.82h-3.91c-.43-.25-.3-.65-.28-1,.13-2.28.25-4.56.38-6.84A1.82,1.82,0,0,0,991.19,38.68Z"/><path class="cls-3" d="M1032.48,38.68a8.22,8.22,0,0,1-11.83-8,2.71,2.71,0,0,0-.42-1.75,8.17,8.17,0,0,1,5-12.44,1.58,1.58,0,0,0,1.37-1.42c1.22-6.32,8.85-8.29,13.27-4.65a7.86,7.86,0,0,1,2.59,3.9,1.29,1.29,0,0,0,1.15,1,8.2,8.2,0,0,1,5.79,12,1.82,1.82,0,0,0-.13,1.32c1.28,5.86-2.62,10.75-8.45,10.59a11.37,11.37,0,0,1-4.32-1.5c0-.77-.1-1.54-.15-2.31-.12-1.92-.56-4,1.2-5.52a5.06,5.06,0,0,0,1-1.09c.59-1,1.92-1.55,1.88-2.95,0-.28,0-.56-.26-.73s-.5.09-.69.26c-.8.73-1.61,1.44-2.37,2.2-.27.27-.48.52-.88.37s-.45-.49-.45-.85c0-1.93-.36-3.85-.24-5.79a6.75,6.75,0,0,0,0-1.62c-.08-.49-.26-1-.94-1a.91.91,0,0,0-.84,1.06c.15,3.34-.64,6.62-.7,10,0,.3.07.66-.31.79a.76.76,0,0,1-.84-.26,21.59,21.59,0,0,1-2.33-2.06.9.9,0,0,0-1.42-.21c-.45.44-.28,1,.16,1.43.14.14.27.28.41.41,1.25,1.2,2.49,2.39,3.75,3.58a.9.9,0,0,1,.34.7C1032.7,35.68,1033,37.2,1032.48,38.68Z"/><path class="cls-4" d="M1032.48,38.68c.49-1.48.22-3,.28-4.5a.9.9,0,0,0-.34-.7c-1.26-1.19-2.5-2.38-3.75-3.58-.14-.13-.27-.27-.41-.41-.44-.44-.61-1-.16-1.43a.9.9,0,0,1,1.42.21,21.59,21.59,0,0,0,2.33,2.06.76.76,0,0,0,.84.26c.38-.13.3-.49.31-.79.06-3.33.85-6.61.7-9.95a.91.91,0,0,1,.84-1.06c.68-.07.86.48.94,1a6.75,6.75,0,0,1,0,1.62c-.12,1.94.24,3.86.24,5.79,0,.36,0,.71.45.85s.61-.1.88-.37c.76-.76,1.57-1.47,2.37-2.2.19-.17.36-.45.69-.26s.26.45.26.73c0,1.4-1.29,1.94-1.88,2.95a5.06,5.06,0,0,1-1,1.09c-1.76,1.55-1.32,3.6-1.2,5.52,0,.77.12,1.54.15,2.31-.32,2.44.26,4.85.23,7.28,0,.94.44,1.91-.15,2.82h-3.91c-.43-.25-.31-.65-.29-1,.14-2.28.26-4.56.38-6.84A1.73,1.73,0,0,0,1032.48,38.68Z"/><text class="cls-5" transform="translate(201.11 37.51) scale(0.89 1)">ha</text><text class="cls-6" transform="translate(142.11 37.89)">450</text></g></g></svg>